<?xml version="1.0" encoding="UTF-8"?>
<svg xmlns="http://www.w3.org/2000/svg" xmlns:xlink="http://www.w3.org/1999/xlink" width="18px" height="12px" viewBox="0 0 45 30" version="1.1">
<g id="surface1">
<path style=" stroke:none;fill-rule:nonzero;fill:rgb(100%,100%,100%);fill-opacity:1;" d="M 0.0234375 0 L 44.976562 0 L 44.976562 30 L 0.0234375 30 Z M 0.0234375 0 "/>
<path style=" stroke:none;fill-rule:nonzero;fill:rgb(84.705883%,0%,15.294118%);fill-opacity:1;" d="M 25.308594 0 L 19.691406 0 L 19.691406 12.1875 L 0.0234375 12.1875 L 0.0234375 17.8125 L 19.691406 17.8125 L 19.691406 30 L 25.308594 30 L 25.308594 17.8125 L 44.976562 17.8125 L 44.976562 12.1875 L 25.308594 12.1875 Z M 25.308594 0 "/>
<path style=" stroke:none;fill-rule:nonzero;fill:rgb(0%,32.156864%,70.588237%);fill-opacity:1;" d="M 34.597656 20.21875 L 44.976562 25.988281 L 44.976562 20.21875 Z M 34.597656 20.21875 "/>
<path style=" stroke:none;fill-rule:nonzero;fill:rgb(0%,32.156864%,70.588237%);fill-opacity:1;" d="M 27.386719 20.21875 L 44.976562 30 L 44.976562 27.234375 L 32.359375 20.21875 Z M 27.386719 20.21875 "/>
<path style=" stroke:none;fill-rule:nonzero;fill:rgb(0%,32.156864%,70.588237%);fill-opacity:1;" d="M 40.292969 30 L 27.386719 22.820312 L 27.386719 30 Z M 40.292969 30 "/>
<path style=" stroke:none;fill-rule:nonzero;fill:rgb(100%,100%,100%);fill-opacity:1;" d="M 27.386719 20.21875 L 44.976562 30 L 44.976562 27.234375 L 32.359375 20.21875 Z M 27.386719 20.21875 "/>
<path style=" stroke:none;fill-rule:nonzero;fill:rgb(84.705883%,0%,15.294118%);fill-opacity:1;" d="M 27.386719 20.21875 L 44.976562 30 L 44.976562 27.234375 L 32.359375 20.21875 Z M 27.386719 20.21875 "/>
<path style=" stroke:none;fill-rule:nonzero;fill:rgb(0%,32.156864%,70.588237%);fill-opacity:1;" d="M 7.953125 20.21875 L 0.0234375 24.628906 L 0.0234375 20.21875 Z M 7.953125 20.21875 "/>
<path style=" stroke:none;fill-rule:nonzero;fill:rgb(0%,32.156864%,70.588237%);fill-opacity:1;" d="M 17.613281 21.460938 L 17.613281 30 L 2.261719 30 Z M 17.613281 21.460938 "/>
<path style=" stroke:none;fill-rule:nonzero;fill:rgb(84.705883%,0%,15.294118%);fill-opacity:1;" d="M 12.640625 20.21875 L 0.0234375 27.234375 L 0.0234375 30 L 17.613281 20.21875 Z M 12.640625 20.21875 "/>
<path style=" stroke:none;fill-rule:nonzero;fill:rgb(0%,32.156864%,70.588237%);fill-opacity:1;" d="M 10.402344 9.78125 L 0.0234375 4.011719 L 0.0234375 9.78125 Z M 10.402344 9.78125 "/>
<path style=" stroke:none;fill-rule:nonzero;fill:rgb(0%,32.156864%,70.588237%);fill-opacity:1;" d="M 17.613281 9.78125 L 0.0234375 0 L 0.0234375 2.765625 L 12.640625 9.78125 Z M 17.613281 9.78125 "/>
<path style=" stroke:none;fill-rule:nonzero;fill:rgb(0%,32.156864%,70.588237%);fill-opacity:1;" d="M 4.707031 0 L 17.613281 7.175781 L 17.613281 0 Z M 4.707031 0 "/>
<path style=" stroke:none;fill-rule:nonzero;fill:rgb(100%,100%,100%);fill-opacity:1;" d="M 17.613281 9.78125 L 0.0234375 0 L 0.0234375 2.765625 L 12.640625 9.78125 Z M 17.613281 9.78125 "/>
<path style=" stroke:none;fill-rule:nonzero;fill:rgb(84.705883%,0%,15.294118%);fill-opacity:1;" d="M 17.613281 9.78125 L 0.0234375 0 L 0.0234375 2.765625 L 12.640625 9.78125 Z M 17.613281 9.78125 "/>
<path style=" stroke:none;fill-rule:nonzero;fill:rgb(0%,32.156864%,70.588237%);fill-opacity:1;" d="M 37.046875 9.78125 L 44.976562 5.371094 L 44.976562 9.78125 Z M 37.046875 9.78125 "/>
<path style=" stroke:none;fill-rule:nonzero;fill:rgb(0%,32.156864%,70.588237%);fill-opacity:1;" d="M 27.386719 8.539062 L 27.386719 0 L 42.738281 0 Z M 27.386719 8.539062 "/>
<path style=" stroke:none;fill-rule:nonzero;fill:rgb(84.705883%,0%,15.294118%);fill-opacity:1;" d="M 32.359375 9.78125 L 44.976562 2.765625 L 44.976562 0 L 27.386719 9.78125 Z M 32.359375 9.78125 "/>
</g>
</svg>
